<svg version="1" xmlns="http://www.w3.org/2000/svg" width="1386.667" height="1386.667" viewBox="0 0 1040.000000 1040.000000"><path d="M244.5 123.1c-31.2 3.1-59.1 16.4-81.8 38.7-20 19.8-33 44.5-38.3 72.7-1.8 9.6-1.9 20.4-1.9 285.5s.1 275.9 1.9 285.5c10.6 56.6 53.5 99.5 110.1 110.1 9.6 1.8 20.4 1.9 285.5 1.9s275.9-.1 285.5-1.9c28.2-5.3 52.9-18.3 72.7-38.3 19.8-20.1 32.2-43.9 37.4-71.8 1.8-9.6 1.9-20.4 1.9-285.5s-.1-275.9-1.9-285.5c-5.3-28.2-18.3-52.9-38.3-72.7-19.4-19.1-41.6-31-69.3-37.1l-9.5-2.1-273-.2c-150.2-.1-276.6.2-281 .7zm557.6 16.4c49.7 8.6 89.8 48.7 98.4 98.3 2.2 12.7 2.2 551.7 0 564.4-8.6 49.5-48.8 89.7-98.3 98.3-12.7 2.2-551.7 2.2-564.4 0-49.6-8.6-89.7-48.7-98.3-98.4-2.2-12.6-2.2-551.6 0-564.2 8.6-49.3 48.3-89.4 97.5-98.4 11.6-2.1 553-2.2 565.1 0z"/><path d="M619 224.5c-23.2 4.4-43.9 23.2-50.6 46-2.3 7.9-2.4 24.6-.1 33.4 2.4 9 7.2 17.5 14 24.8 7.6 8.1 15.1 13 25.7 16.7 8 2.8 9.4 3 23.5 3.1 13 0 16-.3 22.5-2.4 9.4-2.9 13-4.7 20.7-10.6 11.3-8.4 18.9-20.8 21.9-35.5 5.2-26.1-5.3-50.6-28.3-66-13.6-9.1-32.4-12.7-49.3-9.5zM350.8 411.7l-.3 161.8-2.3 6.4c-6.5 17.9-19.5 24.2-37.9 18.3l-6.3-2v137.7l6.5 2c18.7 5.8 43.8 7.3 63.1 3.8 31-5.6 58.6-21.6 79-45.8 20.5-24.3 32.9-51.5 38.3-83.9 2.7-16.4 3.1-40.3 3.1-197.3V250H351l-.2 161.7zM566 555v175h131V380H566v175z"/></svg>